<?xml version="1.0" encoding="UTF-8"?>
<svg version="1.1" xmlns="http://www.w3.org/2000/svg" width="1600" height="592">
<path d="M0 0 C528 0 1056 0 1600 0 C1600 195.36 1600 390.72 1600 592 C1072 592 544 592 0 592 C0 396.64 0 201.28 0 0 Z " fill="#0C4DA0" transform="translate(0,0)"/>
<path d="M0 0 C264 0 528 0 800 0 C800 195.36 800 390.72 800 592 C536 592 272 592 0 592 C0 396.64 0 201.28 0 0 Z " fill="#EC1F81" transform="translate(0,0)"/>
<path d="M0 0 C30.69 0 61.38 0 93 0 C93 30.36 93 60.72 93 92 C62.31 92 31.62 92 0 92 C0 61.64 0 31.28 0 0 Z " fill="#FEFAFD" transform="translate(698,209)"/>
<path d="M0 0 C30.69 0 61.38 0 93 0 C93 30.36 93 60.72 93 92 C62.31 92 31.62 92 0 92 C0 61.64 0 31.28 0 0 Z " fill="#FAFCFD" transform="translate(809,209)"/>
<path d="M0 0 C4.16642697 -0.11703447 8.3324259 -0.18753101 12.5 -0.25 C13.67304687 -0.28351563 14.84609375 -0.31703125 16.0546875 -0.3515625 C22.89980725 -0.42847396 28.38788244 -0.20999923 34 4 C36.86645844 6.82664652 37.4508466 8.94993073 37.5 12.9375 C37.39065253 16.84523339 37.17253659 17.77616875 34.6875 21 C32.82812452 22.38372129 30.92848399 23.71434401 29 25 C29.83144531 25.48919922 29.83144531 25.48919922 30.6796875 25.98828125 C31.40414062 26.42527344 32.12859375 26.86226563 32.875 27.3125 C33.59429688 27.74175781 34.31359375 28.17101562 35.0546875 28.61328125 C37 30 37 30 39 33 C39.5840703 37.47534388 39.52465129 41.65922448 37.875 45.875 C34.5786293 49.6108868 30.91327747 52.10931773 26 53 C23.97531289 53.08091092 21.94815381 53.10758899 19.921875 53.09765625 C18.18164062 53.09282227 18.18164062 53.09282227 16.40625 53.08789062 C15.1996875 53.07951172 13.993125 53.07113281 12.75 53.0625 C11.52796875 53.05798828 10.3059375 53.05347656 9.046875 53.04882812 C6.03120054 53.03704815 3.01562502 53.02059853 0 53 C0 52.34 0 51.68 0 51 C1.32 51 2.64 51 4 51 C4 34.5 4 18 4 1 C2.68 0.67 1.36 0.34 0 0 Z " fill="#FDE1F3" transform="translate(614,330)"/>
<path d="M0 0 C3.64555558 -0.11755481 7.29061474 -0.18769812 10.9375 -0.25 C12.46987305 -0.30027344 12.46987305 -0.30027344 14.03320312 -0.3515625 C20.83083486 -0.43843319 26.14379983 0.39882993 32 4 C34.9886153 7.0791794 35.207333 9.7955042 35.375 13.9375 C35.2187775 18.31823916 34.60170106 21.35761851 32 25 C26.48709745 29.33994456 22.62825723 30.13726367 15.75 30.0625 C14.67234375 30.05347656 13.5946875 30.04445313 12.484375 30.03515625 C11.66453125 30.02355469 10.8446875 30.01195312 10 30 C10.1095693 33.45900478 10.24026848 36.91689109 10.375 40.375 C10.4059375 41.35984375 10.436875 42.3446875 10.46875 43.359375 C10.50742187 44.30039062 10.54609375 45.24140625 10.5859375 46.2109375 C10.6173584 47.08024902 10.6487793 47.94956055 10.68115234 48.84521484 C10.81229433 51.20961794 10.81229433 51.20961794 13 53 C8.71 53 4.42 53 0 53 C0.66 52.34 1.32 51.68 2 51 C2.33069425 48.77803673 2.33069425 48.77803673 2.31884766 46.18310547 C2.33871735 45.18221893 2.35858704 44.1813324 2.37905884 43.15011597 C2.39061005 42.06674957 2.40216125 40.98338318 2.4140625 39.8671875 C2.43342865 38.76021515 2.4527948 37.6532428 2.4727478 36.51272583 C2.53266754 32.96689631 2.57897873 29.42103455 2.625 25.875 C2.66316835 23.47524603 2.70221939 21.07550592 2.7421875 18.67578125 C2.83837916 12.78397698 2.92339015 6.89208964 3 1 C2.01 0.67 1.02 0.34 0 0 Z " fill="#E6F1F9" transform="translate(806,330)"/>
<path d="M0 0 C3.85419129 -0.70140614 7.16192966 -0.8727527 11 0 C13.98629364 2.6514335 15.87712499 5.80373132 17.91064453 9.21972656 C19.93977791 12.53582711 22.21442772 15.68725658 24.4375 18.875 C25.2917282 20.12146241 26.14456478 21.36887953 26.99609375 22.6171875 C30.97070017 28.42985301 34.98848989 34.21277668 39 40 C39.0740324 34.62486811 39.12854569 29.25003146 39.16479492 23.87451172 C39.17990251 22.04503207 39.20038968 20.21558875 39.22631836 18.38623047 C39.26261585 15.76000008 39.27970615 13.13424751 39.29296875 10.5078125 C39.30845261 9.68693146 39.32393646 8.86605042 39.33988953 8.02029419 C39.3758295 5.47607027 39.3758295 5.47607027 39 2 C38.01 1.34 37.02 0.68 36 0 C39.96 0 43.92 0 48 0 C47.01 0.66 46.02 1.32 45 2 C44.52376333 4.25579898 44.52376333 4.25579898 44.56762695 6.90869141 C44.54783279 7.92959869 44.52803864 8.95050598 44.50764465 10.00234985 C44.49805977 11.66021011 44.49805977 11.66021011 44.48828125 13.3515625 C44.47033005 14.4807309 44.45237885 15.60989929 44.43388367 16.77328491 C44.37957112 20.39048493 44.34581734 24.00755146 44.3125 27.625 C44.27934548 30.07293533 44.2448576 32.520853 44.20898438 34.96875 C44.12383274 40.97904695 44.05557192 46.98936075 44 53 C39.27734375 52.31152344 39.27734375 52.31152344 36.78125 49.5078125 C36.00598772 48.39036315 35.24660112 47.26179877 34.5 46.125 C34.08202148 45.5151123 33.66404297 44.90522461 33.23339844 44.27685547 C32.31260202 42.92981402 31.39854202 41.57815023 30.49023438 40.22265625 C28.33244397 37.00435287 26.14073564 33.80953121 23.95117188 30.61279297 C22.84460505 28.99455015 21.74154524 27.37390173 20.64257812 25.75048828 C19.86817383 24.60942627 19.86817383 24.60942627 19.078125 23.4453125 C18.62856445 22.78031738 18.17900391 22.11532227 17.71582031 21.43017578 C15.22148406 17.89736089 12.59478284 14.45971046 10 11 C9.67 24.2 9.34 37.4 9 51 C9.99 51.33 10.98 51.66 12 52 C12 52.33 12 52.66 12 53 C8.37 53 4.74 53 1 53 C1.66 52.34 2.32 51.68 3 51 C3.31264962 48.83229355 3.31264962 48.83229355 3.2746582 46.30664062 C3.28419022 45.33223022 3.29372223 44.35781982 3.30354309 43.35388184 C3.30263168 42.29866333 3.30172028 41.24344482 3.30078125 40.15625 C3.30506638 39.07621704 3.3093515 37.99618408 3.31376648 36.88342285 C3.31951678 34.59693097 3.32000492 32.31042079 3.31567383 30.02392578 C3.31251291 26.51433313 3.33596842 23.00558214 3.36132812 19.49609375 C3.36360084 17.2786469 3.36430474 15.06119778 3.36328125 12.84375 C3.372491 11.78853149 3.38170074 10.73331299 3.39118958 9.64611816 C3.38184639 8.18450256 3.38184639 8.18450256 3.37231445 6.69335938 C3.37294388 5.83335327 3.3735733 4.97334717 3.3742218 4.08728027 C3.25072861 3.39847778 3.12723541 2.70967529 3 2 C2.01 1.34 1.02 0.68 0 0 Z " fill="#D7E6F5" transform="translate(873,330)"/>
<path d="M0 0 C4.95 0 9.9 0 15 0 C13.68 0.33 12.36 0.66 11 1 C11.33 7.93 11.66 14.86 12 22 C16.81548763 17.91137843 21.44285949 13.68570406 25.9375 9.25 C26.87464844 8.32703125 27.81179688 7.4040625 28.77734375 6.453125 C31.1794115 4.13282979 31.1794115 4.13282979 32 1 C31.34 0.67 30.68 0.34 30 0 C34.62 0 39.24 0 44 0 C42.35 1.32 40.7 2.64 39 4 C33.74091677 8.39325855 28.85387236 13.07119606 24.078125 17.984375 C22.15057696 19.85395167 20.18499568 21.44491299 18 23 C18.57550046 26.3404343 19.53228826 27.87015214 22.02734375 30.13671875 C22.96175293 30.99680542 22.96175293 30.99680542 23.91503906 31.87426758 C24.91615723 32.77181763 24.91615723 32.77181763 25.9375 33.6875 C26.61393555 34.30455811 27.29037109 34.92161621 27.98730469 35.55737305 C29.34944401 36.79801989 30.71481082 38.03513312 32.08349609 39.26855469 C33.77222609 40.79422006 35.44632 42.33346064 37.11328125 43.8828125 C41.56927058 48.23275773 41.56927058 48.23275773 47 51 C47 51.66 47 52.32 47 53 C41.72 53 36.44 53 31 53 C31 52.34 31 51.68 31 51 C31.66 51 32.32 51 33 51 C31.62790233 46.70277102 29.77862344 44.54389688 26.375 41.625 C25.04275391 40.46871094 25.04275391 40.46871094 23.68359375 39.2890625 C22.79800781 38.53367187 21.91242187 37.77828125 21 37 C19.47772207 35.66831622 17.9567279 34.33516231 16.4375 33 C15.79683594 32.443125 15.15617188 31.88625 14.49609375 31.3125 C13.64347059 30.56450684 12.80201622 29.80201622 12 29 C11.94212216 32.62493334 11.9064458 36.24974857 11.875 39.875 C11.85824219 40.90753906 11.84148438 41.94007813 11.82421875 43.00390625 C11.81455078 44.48310547 11.81455078 44.48310547 11.8046875 45.9921875 C11.78897705 47.35899658 11.78897705 47.35899658 11.77294922 48.75341797 C11.78129007 51.20290436 11.78129007 51.20290436 14 53 C9.71 53 5.42 53 1 53 C1 52.34 1 51.68 1 51 C1.99 51 2.98 51 4 51 C4 34.5 4 18 4 1 C2.68 0.67 1.36 0.34 0 0 Z " fill="#E9F3FB" transform="translate(931,330)"/>
<path d="M0 0 C10.89 0 21.78 0 33 0 C33 1.98 33 3.96 33 6 C32.34 5.67 31.68 5.34 31 5 C29.33434251 4.84777027 27.66343504 4.75082785 25.9921875 4.68359375 C25.00605469 4.64169922 24.01992188 4.59980469 23.00390625 4.55664062 C21.45509766 4.49766602 21.45509766 4.49766602 19.875 4.4375 C18.83472656 4.39431641 17.79445313 4.35113281 16.72265625 4.30664062 C14.1486017 4.20037232 11.57431869 4.09966473 9 4 C9 10.27 9 16.54 9 23 C15.6 23 22.2 23 29 23 C29.33 21.68 29.66 20.36 30 19 C30.33 19 30.66 19 31 19 C31 22.96 31 26.92 31 31 C30.01 30.01 29.02 29.02 28 28 C25.88384156 27.49945249 25.88384156 27.49945249 23.55078125 27.48828125 C22.78677002 27.45516846 22.02275879 27.42205566 21.2355957 27.38793945 C20.27097412 27.36304443 19.30635254 27.33814941 18.3125 27.3125 C15.239375 27.209375 12.16625 27.10625 9 27 C9 34.26 9 41.52 9 49 C14.011875 48.9071875 14.011875 48.9071875 19.125 48.8125 C20.16672363 48.80581299 21.20844727 48.79912598 22.28173828 48.79223633 C28.58819803 48.58056539 31.63091339 47.61181364 36 43 C35.85950482 44.47968324 35.71245174 45.95874516 35.5625 47.4375 C35.48128906 48.26121094 35.40007813 49.08492188 35.31640625 49.93359375 C35 52 35 52 34 53 C31.40640678 53.08851529 28.83960309 53.11525945 26.24609375 53.09765625 C25.47064713 53.0962413 24.6952005 53.09482635 23.89625549 53.09336853 C21.40996506 53.08775345 18.9237634 53.07519846 16.4375 53.0625 C14.75586067 53.05748694 13.07421994 53.0529237 11.39257812 53.04882812 C7.26168434 53.03777913 3.13085724 53.02050445 -1 53 C-1 52.34 -1 51.68 -1 51 C-0.01 51 0.98 51 2 51 C2 34.5 2 18 2 1 C1.34 0.67 0.68 0.34 0 0 Z " fill="#FEF3FB" transform="translate(757,330)"/>
<path d="M0 0 C4.62 0 9.24 0 14 0 C13.01 0.33 12.02 0.66 11 1 C11.069042 6.44478172 11.15708887 11.88880758 11.26245117 17.33300781 C11.29562296 19.18350819 11.32367887 21.03410786 11.34643555 22.88476562 C11.3801245 25.55121003 11.4324466 28.2167509 11.48828125 30.8828125 C11.49467117 31.70492218 11.5010611 32.52703186 11.50764465 33.37405396 C11.63260375 38.30038611 12.31422002 41.71572722 15 46 C18.77043611 49.42766919 22.66769838 49.50853701 27.55859375 49.35546875 C31.17696026 48.82863459 33.31024985 47.42077514 36 45 C37.67960875 42.21708655 38.25745639 40.10729702 38.31884766 36.87402344 C38.33871735 36.07349548 38.35858704 35.27296753 38.37905884 34.44818115 C38.39061005 33.59387512 38.40216125 32.73956909 38.4140625 31.859375 C38.43342865 30.97719299 38.4527948 30.09501099 38.4727478 29.18609619 C38.53242848 26.37416184 38.57888283 23.5621863 38.625 20.75 C38.66319038 18.84112819 38.70224273 16.93227341 38.7421875 15.0234375 C38.83812058 10.34909704 38.92219416 5.67467591 39 1 C38.01 0.67 37.02 0.34 36 0 C39.63 0 43.26 0 47 0 C46.34 0.66 45.68 1.32 45 2 C44.81487572 4.84461097 44.74733462 7.60033832 44.76171875 10.4453125 C44.74628771 12.17969522 44.72998326 13.91407036 44.71289062 15.6484375 C44.69649506 18.38037876 44.68746553 21.11176403 44.69458008 23.84375 C44.69721682 26.48240595 44.66894813 29.11938198 44.63671875 31.7578125 C44.64692551 32.5633255 44.65713226 33.3688385 44.66764832 34.19876099 C44.56446285 40.25285978 42.7991749 44.28859761 39 49 C34.31714266 53.16253986 30.06670688 53.35960698 23.9375 53.4375 C23.25260498 53.4478125 22.56770996 53.458125 21.86206055 53.46875 C17.19233088 53.38756672 13.94216554 52.4882765 10 50 C8.35546875 48.28125 8.35546875 48.28125 7.1875 46.5 C6.78917969 45.9121875 6.39085937 45.324375 5.98046875 44.71875 C3.50253393 40.37495988 3.8725489 36.0110055 3.90234375 31.17578125 C3.9037587 30.31438034 3.90517365 29.45297943 3.90663147 28.56547546 C3.9122286 25.81444831 3.92478054 23.06350256 3.9375 20.3125 C3.94251537 18.4472668 3.94707821 16.58203233 3.95117188 14.71679688 C3.96219708 10.14449989 3.97945973 5.57226375 4 1 C2.68 0.67 1.36 0.34 0 0 Z " fill="#FEEBF8" transform="translate(702,330)"/>
<path d="M0 0 C4.29 0 8.58 0 13 0 C12.01 0.33 11.02 0.66 10 1 C10 16.84 10 32.68 10 49 C20.395 48.505 20.395 48.505 31 48 C32.98 45.525 32.98 45.525 35 43 C35.66 43 36.32 43 37 43 C36.54177532 46.46941546 36.10868317 49.67395049 35 53 C23.12 53 11.24 53 -1 53 C-0.67 52.34 -0.34 51.68 0 51 C0.99 51 1.98 51 3 51 C3 34.5 3 18 3 1 C2.01 0.67 1.02 0.34 0 0 Z " fill="#FEE7F5" transform="translate(663,330)"/>
<path d="M0 0 C5.94 0 11.88 0 18 0 C14 2 14 2 6 3 C6 9.6 6 16.2 6 23 C9.3 23 12.6 23 16 23 C16.66 23.66 17.32 24.32 18 25 C17 26 17 26 14.49609375 26.09765625 C11.6640625 26.06510417 8.83203125 26.03255208 6 26 C6.33 32.93 6.66 39.86 7 47 C11.29 47.33 15.58 47.66 20 48 C20 48.99 20 49.98 20 51 C13.07 51 6.14 51 -1 51 C-0.67 34.17 -0.34 17.34 0 0 Z " fill="#FEF2FB" transform="translate(619,331)"/>
<path d="M0 0 C3.96 0 7.92 0 12 0 C11.01 0.66 10.02 1.32 9 2 C8.52376333 4.25579898 8.52376333 4.25579898 8.56762695 6.90869141 C8.54783279 7.92959869 8.52803864 8.95050598 8.50764465 10.00234985 C8.49805977 11.66021011 8.49805977 11.66021011 8.48828125 13.3515625 C8.47033005 14.4807309 8.45237885 15.60989929 8.43388367 16.77328491 C8.37957112 20.39048493 8.34581734 24.00755146 8.3125 27.625 C8.27934548 30.07293533 8.2448576 32.520853 8.20898438 34.96875 C8.12383274 40.97904695 8.05557192 46.98936075 8 53 C4.17172879 52.46435221 3.26652439 52.30478564 0.60546875 49.26171875 C-0.21598956 48.08092482 -1.02122083 46.8887266 -1.8125 45.6875 C-2.23829346 45.06246582 -2.66408691 44.43743164 -3.1027832 43.79345703 C-3.97975926 42.50256656 -4.85075204 41.20759175 -5.71582031 39.90869141 C-6.93470408 38.09705009 -8.18880448 36.31747605 -9.4609375 34.54296875 C-10.19570313 33.49753906 -10.93046875 32.45210938 -11.6875 31.375 C-12.35136719 30.43398438 -13.01523437 29.49296875 -13.69921875 28.5234375 C-15 26 -15 26 -14.70703125 23.6640625 C-14.47371094 23.11492187 -14.24039063 22.56578125 -14 22 C-13.01 22 -12.02 22 -11 22 C-11 22.66 -11 23.32 -11 24 C-10.41347656 24.05542969 -9.82695313 24.11085938 -9.22265625 24.16796875 C-5.9869994 25.37920761 -5.1744299 27.37875934 -3.4375 30.3125 C-1.41934661 33.6790855 0.6191971 36.88074397 3 40 C3.0740324 34.62486811 3.12854569 29.25003146 3.16479492 23.87451172 C3.17990251 22.04503207 3.20038968 20.21558875 3.22631836 18.38623047 C3.26261585 15.76000008 3.27970615 13.13424751 3.29296875 10.5078125 C3.30845261 9.68693146 3.32393646 8.86605042 3.33988953 8.02029419 C3.3758295 5.47607027 3.3758295 5.47607027 3 2 C2.01 1.34 1.02 0.68 0 0 Z " fill="#EBF5FC" transform="translate(909,330)"/>
<path d="M0 0 C1.58578742 -0.03397307 3.17178767 -0.05809582 4.7578125 -0.078125 C6.08256592 -0.09987793 6.08256592 -0.09987793 7.43408203 -0.12207031 C12.22427358 0.10581701 15.50896375 1.96774414 19.4375 4.6875 C21.31815618 7.47087114 21.56458765 9.69880109 21.390625 13.03515625 C20.76728612 16.17055083 19.28697978 17.84007465 17 20 C13.59644661 22.17554526 10.80565045 22.24100141 6.8125 22.1875 C5.74644531 22.18105469 4.68039062 22.17460937 3.58203125 22.16796875 C1 22 1 22 0 21 C-0.08685603 19.43827255 -0.10702219 17.87270656 -0.09765625 16.30859375 C-0.09443359 15.36435547 -0.09121094 14.42011719 -0.08789062 13.44726562 C-0.07951172 12.45404297 -0.07113281 11.46082031 -0.0625 10.4375 C-0.05798828 9.44041016 -0.05347656 8.44332031 -0.04882812 7.41601562 C-0.03700007 4.94395151 -0.02051849 2.47200482 0 0 Z " fill="#E92381" transform="translate(625,357)"/>
<path d="M0 0 C4.62 0 9.24 0 14 0 C12.35 1.32 10.7 2.64 9 4 C3.74091677 8.39325855 -1.14612764 13.07119606 -5.921875 17.984375 C-7.84942304 19.85395167 -9.81500432 21.44491299 -12 23 C-11.42449954 26.3404343 -10.46771174 27.87015214 -7.97265625 30.13671875 C-7.3497168 30.71010986 -6.72677734 31.28350098 -6.08496094 31.87426758 C-5.08384277 32.77181763 -5.08384277 32.77181763 -4.0625 33.6875 C-3.38606445 34.30455811 -2.70962891 34.92161621 -2.01269531 35.55737305 C-0.65055599 36.79801989 0.71481082 38.03513312 2.08349609 39.26855469 C3.77222609 40.79422006 5.44632 42.33346064 7.11328125 43.8828125 C11.56927058 48.23275773 11.56927058 48.23275773 17 51 C17 51.66 17 52.32 17 53 C11.72 53 6.44 53 1 53 C1 52.34 1 51.68 1 51 C1.66 51 2.32 51 3 51 C1.62790233 46.70277102 -0.22137656 44.54389688 -3.625 41.625 C-4.95724609 40.46677734 -4.95724609 40.46677734 -6.31640625 39.28515625 C-7.20199219 38.53105469 -8.08757813 37.77695312 -9 37 C-10.52297903 35.6899904 -12.04405059 34.37775726 -13.5625 33.0625 C-14.52349609 32.24458984 -14.52349609 32.24458984 -15.50390625 31.41015625 C-17 30 -17 30 -18 28 C-17.01 27.67 -16.02 27.34 -15 27 C-15.33 26.01 -15.66 25.02 -16 24 C-16.66 24 -17.32 24 -18 24 C-18 23.34 -18 22.68 -18 22 C-16.63671875 20.66015625 -16.63671875 20.66015625 -14.6875 19.0625 C-11.00121673 15.92453485 -7.50115806 12.65371349 -4.0625 9.25 C-3.12535156 8.32703125 -2.18820312 7.4040625 -1.22265625 6.453125 C1.1794115 4.13282979 1.1794115 4.13282979 2 1 C1.34 0.67 0.68 0.34 0 0 Z " fill="#DFEDF8" transform="translate(961,330)"/>
<path d="M0 0 C12.42307692 0 12.42307692 0 16 3 C18.56588452 5.56588452 18.3554254 6.74466869 18.4375 10.3125 C18.37668529 14.53082937 18.26283806 15.65416045 15.625 19.125 C9.60813116 23.42276346 9.95074858 22 0 22 C0 14.74 0 7.48 0 0 Z " fill="#13509F" transform="translate(816,334)"/>
<path d="M0 0 C4.62 0 9.24 0 14 0 C13.01 0.66 12.02 1.32 11 2 C10.52427183 4.17415043 10.52427183 4.17415043 10.56762695 6.72509766 C10.54783279 7.70596344 10.52803864 8.68682922 10.50764465 9.69741821 C10.49805977 11.28965714 10.49805977 11.28965714 10.48828125 12.9140625 C10.47033005 13.99883881 10.45237885 15.08361511 10.43388367 16.20126343 C10.3795769 19.67580239 10.34581932 23.15020242 10.3125 26.625 C10.27934496 28.97658192 10.24485702 31.32814546 10.20898438 33.6796875 C10.12383894 39.45300041 10.05557568 45.22633087 10 51 C11.32 51.66 12.64 52.32 14 53 C9.38 53 4.76 53 0 53 C1.32 52.34 2.64 51.68 4 51 C4 34.5 4 18 4 1 C2.68 0.67 1.36 0.34 0 0 Z " fill="#FBFEFD" transform="translate(848,330)"/>
<path d="M0 0 C13.48539786 -0.40864842 13.48539786 -0.40864842 18 3 C19.60964787 6.21929573 19.60686242 9.51887712 19 13 C16.46546343 16.21954645 14.88702695 17.70432435 11 19 C7.32893957 19.13281695 3.67480286 19.04323297 0 19 C0 12.73 0 6.46 0 0 Z " fill="#E62982" transform="translate(625,334)"/>
<path d="M0 0 C3.63 0 7.26 0 11 0 C10.34 0.66 9.68 1.32 9 2 C8.81487572 4.84461097 8.74733462 7.60033832 8.76171875 10.4453125 C8.74628771 12.17969522 8.72998326 13.91407036 8.71289062 15.6484375 C8.69649506 18.38037876 8.68746553 21.11176403 8.69458008 23.84375 C8.69721682 26.48240595 8.66894813 29.11938198 8.63671875 31.7578125 C8.64692551 32.5633255 8.65713226 33.3688385 8.66764832 34.19876099 C8.56566303 40.18244296 6.90946306 44.42171002 3 49 C-0.15951176 51.46390969 -2.90041832 53 -7 53 C-6.875 51.25 -6.875 51.25 -6 49 C-4.01310269 47.64721885 -2.01254782 46.31431695 0 45 C1.7269688 42.24752116 2.25762951 40.09817905 2.31884766 36.87402344 C2.33871735 36.07349548 2.35858704 35.27296753 2.37905884 34.44818115 C2.39061005 33.59387512 2.40216125 32.73956909 2.4140625 31.859375 C2.43342865 30.97719299 2.4527948 30.09501099 2.4727478 29.18609619 C2.53242848 26.37416184 2.57888283 23.5621863 2.625 20.75 C2.66319038 18.84112819 2.70224273 16.93227341 2.7421875 15.0234375 C2.83812058 10.34909704 2.92219416 5.67467591 3 1 C2.01 0.67 1.02 0.34 0 0 Z " fill="#FCBBDC" transform="translate(738,330)"/>
<path d="M0 0 C10.89 0 21.78 0 33 0 C33 1.98 33 3.96 33 6 C32.34 5.67 31.68 5.34 31 5 C29.33434251 4.84777027 27.66343504 4.75082785 25.9921875 4.68359375 C25.00605469 4.64169922 24.01992188 4.59980469 23.00390625 4.55664062 C21.45509766 4.49766602 21.45509766 4.49766602 19.875 4.4375 C18.83472656 4.39431641 17.79445313 4.35113281 16.72265625 4.30664062 C14.14857472 4.2003712 11.57439492 4.09833417 9 4 C9 3.67 9 3.34 9 3 C16.59 3 24.18 3 32 3 C32 2.34 32 1.68 32 1 C22.43 1 12.86 1 3 1 C3 17.5 3 34 3 51 C5.31 51 7.62 51 10 51 C10 50.34 10 49.68 10 49 C10.57443848 48.99589111 11.14887695 48.99178223 11.74072266 48.98754883 C14.36982647 48.95444003 16.99666529 48.88378307 19.625 48.8125 C20.52863281 48.80669922 21.43226563 48.80089844 22.36328125 48.79492188 C28.65105721 48.58838909 31.6168669 47.5651569 36 43 C35.85950482 44.47968324 35.71245174 45.95874516 35.5625 47.4375 C35.48128906 48.26121094 35.40007813 49.08492188 35.31640625 49.93359375 C35 52 35 52 34 53 C31.40640678 53.08851529 28.83960309 53.11525945 26.24609375 53.09765625 C25.47064713 53.0962413 24.6952005 53.09482635 23.89625549 53.09336853 C21.40996506 53.08775345 18.9237634 53.07519846 16.4375 53.0625 C14.75586067 53.05748694 13.07421994 53.0529237 11.39257812 53.04882812 C7.26168434 53.03777913 3.13085724 53.02050445 -1 53 C-1 52.34 -1 51.68 -1 51 C-0.01 51 0.98 51 2 51 C2 34.5 2 18 2 1 C1.34 0.67 0.68 0.34 0 0 Z " fill="#FDCAE8" transform="translate(757,330)"/>
<path d="M0 0 C0.33 0.99 0.66 1.98 1 3 C1.66 3 2.32 3 3 3 C3 16.86 3 30.72 3 45 C4.32 45.33 5.64 45.66 7 46 C7 46.33 7 46.66 7 47 C3.37 47 -0.26 47 -4 47 C-3.01 45.68 -2.02 44.36 -1 43 C-0.53584337 40.8702073 -0.53584337 40.8702073 -0.56762695 38.59863281 C-0.53793571 37.3077475 -0.53793571 37.3077475 -0.50764465 35.99078369 C-0.50125473 35.07085632 -0.49486481 34.15092896 -0.48828125 33.203125 C-0.46135445 31.77996979 -0.46135445 31.77996979 -0.43388367 30.32806396 C-0.37976494 27.30208765 -0.34587974 24.27626922 -0.3125 21.25 C-0.27932833 19.19659261 -0.24483881 17.14320605 -0.20898438 15.08984375 C-0.12403743 10.06000972 -0.05723349 5.03022264 0 0 Z " fill="#EAF4FB" transform="translate(878,336)"/>
<path d="M0 0 C2.475 0.495 2.475 0.495 5 1 C4.01 2.485 4.01 2.485 3 4 C2.67478946 5.99593196 2.67478946 5.99593196 2.68115234 8.19604492 C2.66128265 9.03668991 2.64141296 9.8773349 2.62094116 10.74345398 C2.60938995 11.64666885 2.59783875 12.54988373 2.5859375 13.48046875 C2.56657135 14.40845779 2.5472052 15.33644684 2.5272522 16.29255676 C2.46745756 19.25744425 2.42107145 22.22237057 2.375 25.1875 C2.33682012 27.19728259 2.29776838 29.20704881 2.2578125 31.21679688 C2.16011437 36.14444628 2.08054495 41.07192073 2 46 C12.395 45.505 12.395 45.505 23 45 C22.34 45.99 21.68 46.98 21 48 C14.07 48 7.14 48 0 48 C0 32.16 0 16.32 0 0 Z " fill="#DA3582" transform="translate(673,331)"/>
<path d="M0 0 C3.63 0 7.26 0 11 0 C9.515 1.98 9.515 1.98 8 4 C7.68692075 6.80156377 7.53542503 9.3925694 7.5234375 12.1953125 C7.50785797 12.98396698 7.49227844 13.77262146 7.47622681 14.58517456 C7.42878792 17.09844001 7.40096764 19.61142882 7.375 22.125 C7.33850556 24.64551765 7.29790116 27.16587864 7.25234985 29.68624878 C7.22513198 31.25315178 7.20377681 32.82016962 7.18881226 34.38723755 C7.11063006 39.77873987 7.11063006 39.77873987 6 42 C5.34 42 4.68 42 4 42 C3.98541748 40.79875488 3.97083496 39.59750977 3.95581055 38.35986328 C3.89794008 33.91294227 3.82070738 29.46653366 3.73754883 25.02001953 C3.70424631 23.09367169 3.67623111 21.16722501 3.65356445 19.24072266 C3.62011576 16.4751565 3.56780664 13.71050047 3.51171875 10.9453125 C3.50532883 10.0806839 3.4989389 9.2160553 3.49235535 8.32522583 C3.46079947 5.64736337 3.46079947 5.64736337 3 2 C2.01 1.34 1.02 0.68 0 0 Z " fill="#FEF1FD" transform="translate(738,330)"/>
<path d="M0 0 C0.66 0 1.32 0 2 0 C1.54177532 3.46941546 1.10868317 6.67395049 0 10 C-11.88 10 -23.76 10 -36 10 C-35.67 9.34 -35.34 8.68 -35 8 C-28.73 8.33 -22.46 8.66 -16 9 C-16 8.34 -16 7.68 -16 7 C-18.97 7 -21.94 7 -25 7 C-25 6.67 -25 6.34 -25 6 C-24.38479492 5.99589111 -23.76958984 5.99178223 -23.13574219 5.98754883 C-20.33952769 5.95458704 -17.54548496 5.88394424 -14.75 5.8125 C-13.78191406 5.80669922 -12.81382812 5.80089844 -11.81640625 5.79492188 C-6.00150343 5.75082779 -6.00150343 5.75082779 -1.453125 2.44921875 C-0.73382812 1.23685547 -0.73382812 1.23685547 0 0 Z " fill="#FDC2E4" transform="translate(698,373)"/>
<path d="M0 0 C11.55 0 23.1 0 35 0 C35 3.3 35 6.6 35 10 C33.68 10 32.36 10 31 10 C31 8.68 31 7.36 31 6 C24.4 6 17.8 6 11 6 C11 11.61 11 17.22 11 23 C17.27 23 23.54 23 30 23 C30 23.33 30 23.66 30 24 C23.4 24 16.8 24 10 24 C10 17.73 10 11.46 10 5 C13.64588169 4.97317013 17.29156846 4.95324431 20.9375 4.9375 C21.97841797 4.92912109 23.01933594 4.92074219 24.09179688 4.91210938 C25.08115234 4.90888672 26.07050781 4.90566406 27.08984375 4.90234375 C28.46450806 4.89448853 28.46450806 4.89448853 29.86694336 4.88647461 C32 5 32 5 33 6 C33.33 4.35 33.66 2.7 34 1 C16.675 1.495 16.675 1.495 -1 2 C-0.67 1.34 -0.34 0.68 0 0 Z " fill="#DF4E93" transform="translate(756,329)"/>
<path d="M0 0 C1.32 0 2.64 0 4 0 C4 16.5 4 33 4 50 C2.68 49.67 1.36 49.34 0 49 C0.66 49 1.32 49 2 49 C1.88258093 42.34296425 1.75774651 35.68609757 1.62768555 29.02929688 C1.5842977 26.76337866 1.54262551 24.49742693 1.50268555 22.23144531 C1.44507615 18.97971482 1.38135498 15.72815364 1.31640625 12.4765625 C1.29969376 11.45881744 1.28298126 10.44107239 1.26576233 9.39248657 C1.24581711 8.45166229 1.22587189 7.51083801 1.20532227 6.54150391 C1.18977798 5.71099518 1.1742337 4.88048645 1.15821838 4.02481079 C1.12234803 1.93121564 1.12234803 1.93121564 0 0 Z " fill="#E3438E" transform="translate(662,331)"/>
<path d="M0 0 C0.99 0 1.98 0 3 0 C3 16.5 3 33 3 50 C1.68 49.67 0.36 49.34 -1 49 C-0.505 48.505 -0.505 48.505 0 48 C0.09311889 46.49581261 0.11746028 44.98728644 0.11352539 43.48022461 C0.11344986 42.51930405 0.11337433 41.55838348 0.11329651 40.56834412 C0.10813522 39.523564 0.10297394 38.47878387 0.09765625 37.40234375 C0.09553383 35.80635094 0.09553383 35.80635094 0.09336853 34.17811584 C0.08775064 30.76454917 0.07519511 27.351047 0.0625 23.9375 C0.05748731 21.62955824 0.052924 19.32161545 0.04882812 17.01367188 C0.0377754 11.34242574 0.02101987 5.67121747 0 0 Z " fill="#31619F" transform="translate(806,331)"/>
<path d="M0 0 C0.33 0 0.66 0 1 0 C1.33 16.17 1.66 32.34 2 49 C0.515 49.495 0.515 49.495 -1 50 C-1.02526838 43.03996553 -1.04283222 36.0799428 -1.05493164 29.11987305 C-1.05997341 26.75007688 -1.06680665 24.38028385 -1.07543945 22.01049805 C-1.0875119 18.61245961 -1.09322971 15.21446215 -1.09765625 11.81640625 C-1.10281754 10.74975235 -1.10797882 9.68309845 -1.11329651 8.5841217 C-1.11337204 7.60318039 -1.11344757 6.62223907 -1.11352539 5.61157227 C-1.115746 4.74331314 -1.11796661 3.87505402 -1.12025452 2.98048401 C-1 1 -1 1 0 0 Z " fill="#4F77B3" transform="translate(859,331)"/>
<path d="M0 0 C2.31 0.66 4.62 1.32 7 2 C7 14.87 7 27.74 7 41 C5.68 39.68 4.36 38.36 3 37 C3 36.34 3 35.68 3 35 C3.66 35 4.32 35 5 35 C4.98056183 30.79983092 4.928798 26.60166298 4.84741211 22.40234375 C4.82425541 20.97472533 4.80984176 19.54693664 4.80444336 18.11914062 C4.79513508 16.06272587 4.75411728 14.00897973 4.70703125 11.953125 C4.68346558 10.09929199 4.68346558 10.09929199 4.65942383 8.20800781 C4.27620568 4.80250723 4.27620568 4.80250723 1.45581055 2.56542969 C0.64539307 2.04883789 -0.16502441 1.53224609 -1 1 C-0.67 0.67 -0.34 0.34 0 0 Z " fill="#134B95" transform="translate(906,330)"/>
<path d="M0 0 C0.33 0 0.66 0 1 0 C1 3.96 1 7.92 1 12 C0.01 11.01 -0.98 10.02 -2 9 C-4.11615844 8.49945249 -4.11615844 8.49945249 -6.44921875 8.48828125 C-7.29677734 8.45283203 -8.14433594 8.41738281 -9.01757812 8.38085938 C-10.33918945 8.34702148 -10.33918945 8.34702148 -11.6875 8.3125 C-12.58017578 8.27833984 -13.47285156 8.24417969 -14.39257812 8.20898438 C-16.59492671 8.12654352 -18.79687938 8.05738449 -21 8 C-20.34 7.34 -19.68 6.68 -19 6 C-19.66 5.34 -20.32 4.68 -21 4 C-14.4 4 -7.8 4 -1 4 C-0.67 2.68 -0.34 1.36 0 0 Z " fill="#FEDCF5" transform="translate(787,349)"/>
<path d="M0 0 C1.59134766 -0.02126953 1.59134766 -0.02126953 3.21484375 -0.04296875 C6.0625 0.1875 6.0625 0.1875 9.0625 2.1875 C8.7325 2.8475 8.4025 3.5075 8.0625 4.1875 C4.7625 4.1875 1.4625 4.1875 -1.9375 4.1875 C-1.6075 17.7175 -1.2775 31.2475 -0.9375 45.1875 C-1.5975 44.8575 -2.2575 44.5275 -2.9375 44.1875 C-2.9375 31.9775 -2.9375 19.7675 -2.9375 7.1875 C-3.9275 7.1875 -4.9175 7.1875 -5.9375 7.1875 C-5.9375 6.5275 -5.9375 5.8675 -5.9375 5.1875 C-6.5975 5.1875 -7.2575 5.1875 -7.9375 5.1875 C-7.9375 3.8675 -7.9375 2.5475 -7.9375 1.1875 C-5.2264923 -0.16800385 -3.02410831 0.01832793 0 0 Z " fill="#DB3683" transform="translate(707.9375,326.8125)"/>
<path d="M0 0 C4.62 0 9.24 0 14 0 C10 2 10 2 5 1 C5 17.5 5 34 5 51 C7.31 51 9.62 51 12 51 C12.66 51.66 13.32 52.32 14 53 C9.38 53 4.76 53 0 53 C1.32 52.34 2.64 51.68 4 51 C4 34.5 4 18 4 1 C2.68 0.67 1.36 0.34 0 0 Z " fill="#E9F9FE" transform="translate(848,330)"/>
<path d="M0 0 C4.29 0 8.58 0 13 0 C12.67 0.66 12.34 1.32 12 2 C9.36 2 6.72 2 4 2 C4.01571045 3.19077148 4.0314209 4.38154297 4.04760742 5.60839844 C4.10193287 10.02890247 4.13635963 14.44937702 4.16479492 18.87011719 C4.17987558 20.78292809 4.2003431 22.69570446 4.22631836 24.60839844 C4.26273347 27.3588107 4.27973349 30.10876554 4.29296875 32.859375 C4.30845261 33.71368103 4.32393646 34.56798706 4.33988953 35.44818115 C4.34158031 41.42152696 4.34158031 41.42152696 2.48168945 44.57128906 C1.99273193 45.04276367 1.50377441 45.51423828 1 46 C1 44.35 1 42.7 1 41 C1.66 41 2.32 41 3 41 C2.67 28.79 2.34 16.58 2 4 C1.34 4 0.68 4 0 4 C0 2.68 0 1.36 0 0 Z " fill="#DF418A" transform="translate(737,329)"/>
<path d="M0 0 C3.3 0 6.6 0 10 0 C10 0.33 10 0.66 10 1 C7.03 1 4.06 1 1 1 C1.33 7.27 1.66 13.54 2 20 C3.711875 19.855625 5.42375 19.71125 7.1875 19.5625 C8.15042969 19.48128906 9.11335937 19.40007812 10.10546875 19.31640625 C12.78649602 19.02333849 15.3662986 18.57296246 18 18 C15.41313132 20.70445362 14.07671322 21.94865603 10.21484375 22.1328125 C9.13332031 22.13023437 8.05179688 22.12765625 6.9375 22.125 C5.31134766 22.12886719 5.31134766 22.12886719 3.65234375 22.1328125 C1 22 1 22 0 21 C-0.08685603 19.43827255 -0.10702219 17.87270656 -0.09765625 16.30859375 C-0.09443359 15.36435547 -0.09121094 14.42011719 -0.08789062 13.44726562 C-0.07951172 12.45404297 -0.07113281 11.46082031 -0.0625 10.4375 C-0.05798828 9.44041016 -0.05347656 8.44332031 -0.04882812 7.41601562 C-0.03700023 4.94398513 -0.01906415 2.47198528 0 0 Z " fill="#D4488B" transform="translate(625,357)"/>
<path d="M0 0 C0.33 0.66 0.66 1.32 1 2 C0.67 2.66 0.34 3.32 0 4 C0.99 4.66 1.98 5.32 3 6 C-3.65716801 9.72449488 -9.95205171 9.34676486 -17.4375 9.1875 C-18.64599609 9.17396484 -19.85449219 9.16042969 -21.09960938 9.14648438 C-24.06687082 9.11129946 -27.03319937 9.06206696 -30 9 C-30 8.34 -30 7.68 -30 7 C-22.08 7 -14.16 7 -6 7 C-6 6.01 -6 5.02 -6 4 C-3 1.8125 -3 1.8125 0 0 Z " fill="#FEBCE0" transform="translate(644,374)"/>
<path d="M0 0 C0.33 0 0.66 0 1 0 C1.07417552 5.90817518 1.12861434 11.81607911 1.16479492 17.72460938 C1.17987826 19.73442303 1.20034772 21.74420379 1.22631836 23.75390625 C1.26272144 26.64331176 1.27973088 29.53228196 1.29296875 32.421875 C1.30845261 33.31992859 1.32393646 34.21798218 1.33988953 35.14324951 C1.34158031 41.41537533 1.34158031 41.41537533 -0.51831055 44.59863281 C-1.00726807 45.06108398 -1.49622559 45.52353516 -2 46 C-2.66 45.67 -3.32 45.34 -4 45 C-3.5155542 44.19804199 -3.0311084 43.39608398 -2.53198242 42.56982422 C-0.64325384 38.16871037 -0.52505842 34.61446116 -0.48828125 29.8828125 C-0.46135445 28.5970784 -0.46135445 28.5970784 -0.43388367 27.28536987 C-0.37998595 24.56529564 -0.34595142 21.8453948 -0.3125 19.125 C-0.27930874 17.27341348 -0.24481741 15.42184978 -0.20898438 13.5703125 C-0.12427148 9.04700052 -0.0573628 4.52373814 0 0 Z " fill="#DF468B" transform="translate(746,332)"/>
<path d="M0 0 C0.33 0.99 0.66 1.98 1 3 C1.66 3 2.32 3 3 3 C3.125 9.75 3.125 9.75 2 12 C1.84693099 13.81171098 1.75053339 15.6283794 1.68359375 17.4453125 C1.64169922 18.52167969 1.59980469 19.59804688 1.55664062 20.70703125 C1.51732422 21.83496094 1.47800781 22.96289062 1.4375 24.125 C1.39431641 25.26066406 1.35113281 26.39632813 1.30664062 27.56640625 C1.2003396 30.37747768 1.09830595 33.18863945 1 36 C0.67 36 0.34 36 0 36 C0 24.12 0 12.24 0 0 Z " fill="#F6FEFF" transform="translate(878,336)"/>
<path d="M0 0 C0.66 0.33 1.32 0.66 2 1 C2 13.87 2 26.74 2 40 C1.01 39.34 0.02 38.68 -1 38 C-1 37.34 -1 36.68 -1 36 C-0.34 36 0.32 36 1 36 C0.67 24.12 0.34 12.24 0 0 Z " fill="#3E6599" transform="translate(911,331)"/>
<path d="M0 0 C0.33 0 0.66 0 1 0 C1.63019694 10.15317287 1.63019694 10.15317287 -1 13.6875 C-1.66 14.120625 -2.32 14.55375 -3 15 C-2.67 15.99 -2.34 16.98 -2 18 C-4.02045442 17.39816251 -6.02111039 16.72693904 -8 16 C-8.33 15.34 -8.66 14.68 -9 14 C-8.05125 13.7525 -7.1025 13.505 -6.125 13.25 C-3.02922769 12.30709336 -3.02922769 12.30709336 -1.6875 10.375 C-0.69263853 6.93820582 -0.35605618 3.56056178 0 0 Z " fill="#DD4D8F" transform="translate(651,340)"/>
<path d="M0 0 C0.33 0 0.66 0 1 0 C1 4.29 1 8.58 1 13 C2.11375 12.95875 3.2275 12.9175 4.375 12.875 C8 13 8 13 10 15 C5.38 15 0.76 15 -4 15 C-2.68 14.34 -1.36 13.68 0 13 C0 8.71 0 4.42 0 0 Z " fill="#C4DDF3" transform="translate(852,368)"/>
<path d="M0 0 C1.98 1.65 3.96 3.3 6 5 C5.01 5.495 5.01 5.495 4 6 C3.01 5.67 2.02 5.34 1 5 C1 10.94 1 16.88 1 23 C0.67 23 0.34 23 0 23 C0 15.41 0 7.82 0 0 Z " fill="#255390" transform="translate(942,358)"/>
<path d="M0 0 C0.99 0.33 1.98 0.66 3 1 C-1.51525537 4.80232031 -4.76239042 5.56193852 -10.65234375 5.33984375 C-13.63470136 4.90812143 -15.65561252 3.87550998 -18 2 C-17.34 1.67 -16.68 1.34 -16 1 C-15.2575 1.309375 -14.515 1.61875 -13.75 1.9375 C-9.06475281 3.74770914 -4.80323674 3.13017335 0 2 C0 1.34 0 0.68 0 0 Z " fill="#E35999" transform="translate(735,375)"/>
<path d="M0 0 C1.4606285 2.64738916 2 3.89448334 2 7 C1.67 7.99 1.34 8.98 1 10 C-1.0625 8.25 -1.0625 8.25 -3 6 C-2.82246387 2.98188578 -2.16264785 2.16264785 0 0 Z " fill="#3763A4" transform="translate(951,350)"/>
<path d="M0 0 C0.33 0 0.66 0 1 0 C1.1953125 2.05078125 1.390625 4.1015625 1.5859375 6.15234375 C1.72257813 6.76207031 1.85921875 7.37179687 2 8 C2.66 8.33 3.32 8.66 4 9 C3.67 9.66 3.34 10.32 3 11 C2.34 11 1.68 11 1 11 C0.67 11.66 0.34 12.32 0 13 C-0.66 13 -1.32 13 -2 13 C-1.34 8.71 -0.68 4.42 0 0 Z " fill="#4470AC" transform="translate(841,341)"/>
<path d="M0 0 C-1.11575573 3.34726719 -1.51344622 3.62079748 -4.4375 5.25 C-6.2009375 6.11625 -6.2009375 6.11625 -8 7 C-8.66 6.67 -9.32 6.34 -10 6 C-8.90398831 4.99106869 -7.79786082 3.99311775 -6.6875 3 C-6.07261719 2.443125 -5.45773437 1.88625 -4.82421875 1.3125 C-3 0 -3 0 0 0 Z " fill="#2B5DA1" transform="translate(975,331)"/>
<path d="M0 0 C0.763125 0.309375 1.52625 0.61875 2.3125 0.9375 C4.18789677 1.67893593 6.08684652 2.36228217 8 3 C8.33 3.99 8.66 4.98 9 6 C9.66 6.66 10.32 7.32 11 8 C7.24026115 8 6.54322371 7.03457593 3.8125 4.5625 C3.09707031 3.92441406 2.38164063 3.28632813 1.64453125 2.62890625 C1.10183594 2.09136719 0.55914063 1.55382812 0 1 C0 0.67 0 0.34 0 0 Z " fill="#30629F" transform="translate(953,360)"/>
<path d="M0 0 C2.66735273 2.48952921 4.55746343 4.63408134 6 8 C4.68 7.67 3.36 7.34 2 7 C1.67 7.99 1.34 8.98 1 10 C0.67 6.7 0.34 3.4 0 0 Z " fill="#30629E" transform="translate(882,339)"/>
<path d="M0 0 C0.33 0 0.66 0 1 0 C1.22162329 1.62324086 1.42689803 3.248721 1.625 4.875 C1.74101563 5.77992188 1.85703125 6.68484375 1.9765625 7.6171875 C1.98429688 8.40351563 1.99203125 9.18984375 2 10 C1.34 10.66 0.68 11.32 0 12 C-0.99 11.67 -1.98 11.34 -3 11 C-2.34 10.01 -1.68 9.02 -1 8 C-0.54860541 5.9507906 -0.54860541 5.9507906 -0.375 3.8125 C-0.25125 2.554375 -0.1275 1.29625 0 0 Z " fill="#E14A91" transform="translate(653,365)"/>
<path d="M0 0 C0.33 0 0.66 0 1 0 C1.36923077 7.38461538 1.36923077 7.38461538 -0.5 10.5 C-0.995 10.995 -1.49 11.49 -2 12 C-2.66 11.67 -3.32 11.34 -4 11 C-3.525625 10.113125 -3.05125 9.22625 -2.5625 8.3125 C-1.20262851 5.42957244 -0.45939614 3.12389377 0 0 Z " fill="#DD3382" transform="translate(746,366)"/>
<path d="M0 0 C-0.33 2.97 -0.66 5.94 -1 9 C-1.66 8.01 -2.32 7.02 -3 6 C-3.99 5.67 -4.98 5.34 -6 5 C-1.125 0 -1.125 0 0 0 Z " fill="#FDB8E2" transform="translate(793,373)"/>
<path d="M0 0 C3.96 0 7.92 0 12 0 C8.03571429 2.64285714 8.03571429 2.64285714 5 3 C2.25 2.0625 2.25 2.0625 0 1 C0 0.67 0 0.34 0 0 Z " fill="#D8EEFD" transform="translate(909,330)"/>
<path d="M0 0 C0.99 0.33 1.98 0.66 3 1 C3.33 1.99 3.66 2.98 4 4 C1.6875 4.625 1.6875 4.625 -1 5 C-1.99 4.34 -2.98 3.68 -4 3 C-2.68 2.67 -1.36 2.34 0 2 C0 1.34 0 0.68 0 0 Z " fill="#FDDDF2" transform="translate(719,378)"/>
<path d="M0 0 C2.64 0 5.28 0 8 0 C6.875 1.5 6.875 1.5 5 3 C1.8125 3.1875 1.8125 3.1875 -1 3 C-0.67 2.01 -0.34 1.02 0 0 Z " fill="#FFE0F6" transform="translate(627,379)"/>
<path d="M0 0 C0.99 0.66 1.98 1.32 3 2 C1.35 3.32 -0.3 4.64 -2 6 C-2.33 4.68 -2.66 3.36 -3 2 C-2.01 2 -1.02 2 0 2 C0 1.34 0 0.68 0 0 Z " fill="#2F61A3" transform="translate(946,346)"/>
</svg>
